<?xml version="1.0" encoding="iso-8859-1"?>
<!-- Generator: Adobe Illustrator 16.0.0, SVG Export Plug-In . SVG Version: 6.00 Build 0)  -->
<!DOCTYPE svg PUBLIC "-//W3C//DTD SVG 1.1//EN" "http://www.w3.org/Graphics/SVG/1.1/DTD/svg11.dtd">
<svg version="1.1" id="Capa_1" xmlns="http://www.w3.org/2000/svg" xmlns:xlink="http://www.w3.org/1999/xlink" x="0px" y="0px"
	 width="572.831px" height="572.831px" viewBox="0 0 572.831 572.831" style="enable-background:new 0 0 572.831 572.831;"
	 xml:space="preserve">
<g>
	<path d="M566.338,207.539c-61.2-9.6-177.9-11.5-262,11.5c-5.7,1.9-30.601,1.9-36.301,0c-84.2-23-200.8-21-262-11.5
		c-7.7,1.9-7.7,34.4-1.9,36.3c11.5,5.7,17.2,17.2,17.2,17.2s3.8,11.5,13.4,53.5c9.5,42.2,34.4,49.9,34.4,49.9s30.6,7.6,65,7.6
		s55.5-1.899,78.4-13.399c23-11.5,32.5-42.101,32.5-42.101s11.5-26.8,19.1-51.6c1.9-7.7,40.201-7.7,42.1,0
		c7.601,24.9,19.101,51.6,19.101,51.6s9.6,30.601,32.5,42.101c23,11.5,44,13.399,78.399,13.399c34.4,0,65-7.6,65-7.6
		s24.9-5.7,34.4-49.7c9.6-44,13.4-53.5,13.4-53.5s5.699-11.5,17.199-17.2C575.938,242.039,574.039,207.539,566.338,207.539z
		 M51.938,230.539c15.3-11.5,68.8-11.5,88-11.5c19.2,0,53.6,3.8,88,15.3c1.9,0,5.7,1.9,7.7,3.801h-191.4
		C46.138,234.339,48.038,232.439,51.938,230.539z M210.638,335.739c-13.4,9.601-40.2,15.3-74.6,15.3c-21,0-36.3,0-53.6-3.8
		c-11.5-1.899-19.1-5.7-24.9-13.399h156.8C212.538,333.84,212.538,335.739,210.638,335.739z M229.738,314.64h-181.7
		c-1.9-5.7-3.8-13.4-5.7-19.101h197C237.438,301.34,233.638,307.039,229.738,314.64z M245.038,276.439h-206.5
		c0-5.7-1.9-11.5,0-19.101h208.5C248.938,263.039,246.938,270.739,245.038,276.439z M344.539,234.339
		c34.399-11.5,68.899-15.3,88-15.3c19.1,0,74.6,0,88,9.601c3.8,1.899,5.699,5.699,7.699,7.6H336.838
		C338.738,236.239,342.638,234.339,344.539,234.339z M491.738,347.239c-15.3,3.8-32.5,3.8-53.5,3.8c-34.399,0-63.1-7.6-74.6-15.3
		c-1.9,0-1.9-1.899-3.8-3.8h156.8C510.938,343.34,503.238,345.34,491.738,347.239z M526.238,314.64H344.539
		c-3.801-7.601-7.601-13.4-9.601-19.101h197C530.039,301.34,530.039,308.939,526.238,314.64z M535.738,276.439H327.338
		c-1.9-5.7-1.9-13.4-1.9-19.101h210.4C535.738,263.039,535.738,270.739,535.738,276.439z"/>
</g>
<g>
</g>
<g>
</g>
<g>
</g>
<g>
</g>
<g>
</g>
<g>
</g>
<g>
</g>
<g>
</g>
<g>
</g>
<g>
</g>
<g>
</g>
<g>
</g>
<g>
</g>
<g>
</g>
<g>
</g>
</svg>
