<?xml version="1.0" encoding="iso-8859-1"?>
<!-- Generator: Adobe Illustrator 19.0.0, SVG Export Plug-In . SVG Version: 6.00 Build 0)  -->
<svg version="1.1" id="Capa_1" xmlns="http://www.w3.org/2000/svg" xmlns:xlink="http://www.w3.org/1999/xlink" x="0px" y="0px"
	 viewBox="0 0 512 512" style="enable-background:new 0 0 512 512;" xml:space="preserve">
<g>
	<g>
		<path d="M468.61,111c-18.519,0-35.055,11.91-41.149,29.637c-6.242,18.161-23.35,30.363-42.57,30.363
			c-19.149,0-36.237-12.144-42.521-30.218C336.179,122.969,319.151,111,300,111h-4.542l-135,90H105C47.103,201,0,248.103,0,306v95
			h512V154.39C512,130.465,492.535,111,468.61,111z M30,306c0-40.013,31.497-72.805,71-74.891V321H30V306z M482,371H30v-20h452V371z
			 M482,321h-83.875c6.52-43.156,40.719-77.355,83.875-83.875V321z M482,206.87c-59.719,6.893-107.237,54.411-114.129,114.13H131
			v-90h38.542l40.527-27.018l24.593,35.026l24.553-17.239l-24.177-34.433l21.625-14.417l24.611,35.052l24.553-17.239l-24.195-34.459
			l22.196-14.797c4.732,1.2,8.615,4.583,10.206,9.157C324.507,180.759,352.981,201,384.891,201c32.026,0,60.536-20.339,70.941-50.61
			c1.931-5.616,7.065-9.39,12.778-9.39c7.383,0,13.39,6.007,13.39,13.39V206.87z"/>
	</g>
</g>
<g>
</g>
<g>
</g>
<g>
</g>
<g>
</g>
<g>
</g>
<g>
</g>
<g>
</g>
<g>
</g>
<g>
</g>
<g>
</g>
<g>
</g>
<g>
</g>
<g>
</g>
<g>
</g>
<g>
</g>
</svg>
