<?xml version="1.0" encoding="iso-8859-1"?>
<!-- Generator: Adobe Illustrator 19.0.0, SVG Export Plug-In . SVG Version: 6.00 Build 0)  -->
<svg version="1.1" id="Capa_1" xmlns="http://www.w3.org/2000/svg" xmlns:xlink="http://www.w3.org/1999/xlink" x="0px" y="0px"
	 viewBox="0 0 512.001 512.001" style="enable-background:new 0 0 512.001 512.001;" xml:space="preserve">
<g>
	<g>
		<path d="M512,182.974c0-57.918-47.12-105.038-105.038-105.038h-75.027V47.924h-60.022v30.011h-75.027
			c-57.918,0-105.038,47.12-105.038,105.038v135.014l-81.73,85.135c-10.165,10.589-12.905,25.556-7.149,39.06
			c5.756,13.504,18.45,21.893,33.129,21.893h212.448c28.45,0,56.07-11.771,75.773-32.296l90.001-93.75h97.683L512,182.974
			L512,182.974z M302.668,410.996c-14.074,14.66-33.802,23.069-54.124,23.069H36.097c-3.451,0-4.94-2.286-5.522-3.648
			s-1.198-4.021,1.191-6.509l81.481-84.876h258.508L302.668,410.996z M391.956,308.019H121.857V182.974
			c0-41.37,33.657-75.027,75.027-75.027h195.071V308.019z M481.989,308.019h-60.022V109.456
			c34.205,6.971,60.022,37.285,60.022,73.518V308.019z"/>
	</g>
</g>
<g>
</g>
<g>
</g>
<g>
</g>
<g>
</g>
<g>
</g>
<g>
</g>
<g>
</g>
<g>
</g>
<g>
</g>
<g>
</g>
<g>
</g>
<g>
</g>
<g>
</g>
<g>
</g>
<g>
</g>
</svg>
